<?xml version="1.0" encoding="UTF-8" standalone="no"?>
<!-- Created with Inkscape (http://www.inkscape.org/) -->

<svg
   xmlns:dc="http://purl.org/dc/elements/1.1/"
   xmlns:cc="http://creativecommons.org/ns#"
   xmlns:rdf="http://www.w3.org/1999/02/22-rdf-syntax-ns#"
   xmlns:svg="http://www.w3.org/2000/svg"
   xmlns="http://www.w3.org/2000/svg"
   version="1.1"
   width="291.64828"
   height="291.6817"
   id="svg3290">
  <defs
     id="defs3292" />
  <metadata
     id="metadata3295">
    <rdf:RDF>
      <cc:Work
         rdf:about="">
        <dc:format>image/svg+xml</dc:format>
        <dc:type
           rdf:resource="http://purl.org/dc/dcmitype/StillImage" />
        <dc:title></dc:title>
      </cc:Work>
    </rdf:RDF>
  </metadata>
  <g
     transform="translate(-229.17585,-386.52133)"
     id="layer1">
    <path
       d="m 397.98165,386.52133 -48.0772,0 0,147.86316 c 0,19.14711 8.1746,28.71595 24.5364,28.71595 15.6928,0 23.5408,-10.53797 23.5408,-31.62022 z"
       id="path3172"
       style="fill:#000000;fill-opacity:1;fill-rule:nonzero;stroke:none" />
    <path
       d="m 390.48075,678.20303 c 1.8124,-4.61007 3.4332,-9.52015 4.8498,-14.74908 -11.713,6.74624 -23.2957,11.65161 -34.7512,14.74908 z"
       id="path3170"
       style="fill:#000000;fill-opacity:1;fill-rule:nonzero;stroke:none" />
    <path
       d="m 520.82415,678.20303 0,-4.82054 c -0.1587,1.61784 -0.3346,3.22313 -0.5246,4.82054 z"
       id="path3162"
       style="fill:#000000;fill-opacity:1;fill-rule:nonzero;stroke:none" />
    <path
       d="m 255.73045,648.77238 c -13.3134,-14.89987 -22.1492,-32.53124 -26.5546,-52.87052 l 0,82.30117 72.788,0 c -17.7439,-5.01845 -33.1649,-14.80564 -46.2334,-29.43065"
       id="path3148"
       style="fill:#000000;fill-opacity:1;fill-rule:nonzero;stroke:none" />
  </g>
</svg>
