<?xml version="1.0" encoding="UTF-8" standalone="no"?>
<!-- Created with Inkscape (http://www.inkscape.org/) -->

<svg
   xmlns:dc="http://purl.org/dc/elements/1.1/"
   xmlns:cc="http://creativecommons.org/ns#"
   xmlns:rdf="http://www.w3.org/1999/02/22-rdf-syntax-ns#"
   xmlns:svg="http://www.w3.org/2000/svg"
   xmlns="http://www.w3.org/2000/svg"
   version="1.1"
   width="291.64511"
   height="291.6817"
   id="svg3238">
  <defs
     id="defs3240" />
  <metadata
     id="metadata3243">
    <rdf:RDF>
      <cc:Work
         rdf:about="">
        <dc:format>image/svg+xml</dc:format>
        <dc:type
           rdf:resource="http://purl.org/dc/dcmitype/StillImage" />
        <dc:title></dc:title>
      </cc:Work>
    </rdf:RDF>
  </metadata>
  <g
     transform="translate(-229.17744,-386.52133)"
     id="layer1">
    <path
       d="m 333.62897,615.38667 c 13.05271,-10.75002 19.58299,-24.08546 19.58299,-40.00945 0,-18.28322 -9.75773,-32.85796 -29.27005,-43.72265 -19.51703,-10.86155 -45.62559,-16.29625 -78.32883,-16.29625 l 41.63801,-86.80129 -58.07365,0 0,188.45849 c 21.29488,9.65995 39.97324,14.5072 56.01311,14.5072 19.23433,0 35.38257,-5.37502 48.43842,-16.13605"
       id="path3146"
       style="fill:#000000;fill-opacity:1;fill-rule:nonzero;stroke:none" />
    <path
       d="m 431.13086,470.83146 c 32.9781,17.42246 56.9539,36.51617 71.9368,57.27171 8.1322,11.27151 14.0358,23.67394 17.7549,37.19471 l 0,-178.77655 -43.9389,0 z"
       id="path3140"
       style="fill:#000000;fill-opacity:1;fill-rule:nonzero;stroke:none" />
    <path
       d="m 520.82256,678.20303 0,-42.2336 c -4.3677,15.08836 -11.7806,29.16048 -22.2137,42.2336 z"
       id="path3136"
       style="fill:#000000;fill-opacity:1;fill-rule:nonzero;stroke:none" />
  </g>
</svg>
